<svg width="529" height="77" viewBox="0 0 529 77" fill="none" xmlns="http://www.w3.org/2000/svg">
<path d="M56.4375 26.4062C55.8438 27.4688 55.5469 30.0156 55.5469 34.0469V48.5781C55.5469 52.9844 53.2656 56.8125 48.7031 60.0625C43.9844 63.4688 38.2031 65.1719 31.3594 65.1719C21.8594 65.1719 14.2812 62.1875 8.625 56.2188C3.15625 50.5312 0.421875 43.2812 0.421875 34.4688C0.421875 25.0938 3.20312 17.2812 8.76562 11.0312C14.9844 4 23.5469 0.484375 34.4531 0.484375C41.7344 0.484375 47.5 1.89062 51.75 4.70312L51 18.5312L50.625 18.625C49.5312 16.7188 47.375 15.1562 44.1562 13.9375C41.0938 12.7812 37.875 12.2031 34.5 12.2031C31.1562 12.2031 28.2188 12.7344 25.6875 13.7969C23.1875 14.8594 21.0625 16.375 19.3125 18.3438C15.625 22.375 13.7812 27.7031 13.7812 34.3281C13.7812 40.1094 15.4062 44.75 18.6562 48.25C21.9062 51.7188 26.0938 53.4531 31.2188 53.4531C36.875 53.4531 40.6875 51.9844 42.6562 49.0469C43.2812 48.1094 43.5938 47.0469 43.5938 45.8594V38.0781H37.5469C34.2969 38.0781 32.5312 38.3594 32.25 38.9219L32.1094 38.875L31.6875 26.6406C32.5625 26.8906 36.1094 27.0156 42.3281 27.0156H47.8594C51.2969 27.0156 54.1094 26.7812 56.2969 26.3125L56.4375 26.4062ZM72.7812 60.5C72.7812 62.2917 72.8229 63.4583 72.9062 64H64.9688V17.4375H72.7812V60.5ZM79.2188 47.8438C79.2188 45.5521 79.6042 43.3646 80.375 41.2812C81.1667 39.1771 82.2917 37.3438 83.75 35.7812C86.9375 32.4062 91.0729 30.7188 96.1562 30.7188C101.219 30.7188 105.24 32.3125 108.219 35.5C111.073 38.5417 112.5 42.4896 112.5 47.3438C112.5 52.1979 111.031 56.2188 108.094 59.4062C104.99 62.7812 100.875 64.4688 95.75 64.4688C90.4583 64.4688 86.3125 62.8125 83.3125 59.5C80.5833 56.4792 79.2188 52.5938 79.2188 47.8438ZM86.8125 47.6562C86.8125 48.9688 87.0312 50.2396 87.4688 51.4688C87.9062 52.6979 88.5312 53.75 89.3438 54.625C91.0729 56.5208 93.3438 57.4688 96.1562 57.4688C98.7604 57.4688 100.812 56.5417 102.312 54.6875C103.771 52.8958 104.5 50.5625 104.5 47.6875C104.5 44.7708 103.75 42.4167 102.25 40.625C100.646 38.7083 98.4479 37.75 95.6562 37.75C92.8229 37.75 90.6042 38.7708 89 40.8125C87.5417 42.6875 86.8125 44.9688 86.8125 47.6562ZM126.406 60.5C126.406 62.2917 126.448 63.4583 126.531 64H118.75V31.3438H126.406V33.75C128.177 31.7292 130.031 30.7188 131.969 30.7188C133.927 30.7188 135.469 30.9583 136.594 31.4375L136.031 39.8438L135.906 39.9375C135.177 38.6458 133.667 38 131.375 38C130.5 38 129.604 38.3021 128.688 38.9062C127.792 39.4896 127.031 40.2708 126.406 41.25V60.5ZM139.406 22.0312C141.073 19.4271 142.812 17.1354 144.625 15.1562L151.344 20.4375C150.448 21.5417 149.615 22.625 148.844 23.6875C148.844 23.6875 148.042 24.8229 146.438 27.0938L139.406 22.0312ZM147.625 60.5C147.625 62.2917 147.667 63.4583 147.75 64H139.812V31.3438H147.625V60.5ZM154.094 47.8438C154.094 45.5521 154.479 43.3646 155.25 41.2812C156.042 39.1771 157.167 37.3438 158.625 35.7812C161.812 32.4062 165.948 30.7188 171.031 30.7188C176.094 30.7188 180.115 32.3125 183.094 35.5C185.948 38.5417 187.375 42.4896 187.375 47.3438C187.375 52.1979 185.906 56.2188 182.969 59.4062C179.865 62.7812 175.75 64.4688 170.625 64.4688C165.333 64.4688 161.188 62.8125 158.188 59.5C155.458 56.4792 154.094 52.5938 154.094 47.8438ZM161.688 47.6562C161.688 48.9688 161.906 50.2396 162.344 51.4688C162.781 52.6979 163.406 53.75 164.219 54.625C165.948 56.5208 168.219 57.4688 171.031 57.4688C173.635 57.4688 175.688 56.5417 177.188 54.6875C178.646 52.8958 179.375 50.5625 179.375 47.6875C179.375 44.7708 178.625 42.4167 177.125 40.625C175.521 38.7083 173.323 37.75 170.531 37.75C167.698 37.75 165.479 38.7708 163.875 40.8125C162.417 42.6875 161.688 44.9688 161.688 47.6562ZM213.469 61.1562C210.802 63.3646 207.896 64.4688 204.75 64.4688C201.375 64.4688 198.729 63.3333 196.812 61.0625C194.979 58.8542 194.062 55.8229 194.062 51.9688V39.5625C194.062 35.3958 193.969 33.0104 193.781 32.4062C193.615 31.7812 193.49 31.3854 193.406 31.2188C194.365 31.3021 195.365 31.3438 196.406 31.3438H199C199.688 31.3438 200.594 31.3125 201.719 31.25V49.3438C201.719 53.6354 202.885 56.125 205.219 56.8125C205.927 57.0208 206.698 57.125 207.531 57.125C209.99 57.125 211.969 56.2292 213.469 54.4375V31.3438H221.219V60C221.219 61.8333 221.302 63.1667 221.469 64H213.469V61.1562ZM242.219 64.4688C236.344 64.4688 231.917 63.3958 228.938 61.25C228.979 60.625 229.042 59.9167 229.125 59.125L229.406 56.875C229.573 55.3958 229.677 54.4792 229.719 54.125C229.76 53.75 229.792 53.5521 229.812 53.5312C229.833 53.4896 230 53.6562 230.312 54.0312C230.625 54.3854 231.219 54.8229 232.094 55.3438C232.969 55.8646 233.979 56.3229 235.125 56.7188C237.604 57.5729 240.188 58 242.875 58C246.479 58 248.281 56.8021 248.281 54.4062C248.281 53.6354 247.938 53.0625 247.25 52.6875C246.021 52.0625 244.208 51.5938 241.812 51.2812C239.438 50.9479 237.49 50.4688 235.969 49.8438C234.448 49.2188 233.208 48.4688 232.25 47.5938C230.479 45.9479 229.594 43.7917 229.594 41.125C229.594 37.875 230.844 35.3229 233.344 33.4688C235.823 31.6354 239.25 30.7188 243.625 30.7188C247.958 30.7188 251.656 31.9479 254.719 34.4062C254.573 34.9479 254.417 35.4688 254.25 35.9688C253.771 37.3438 253.417 38.3333 253.188 38.9375L252.469 40.7812C252.427 40.9479 252.396 41.0312 252.375 41.0312C252.333 41.0312 252.167 40.8125 251.875 40.375C250.562 38.8542 248.521 37.8542 245.75 37.375C244.896 37.2083 244.021 37.125 243.125 37.125C239.333 37.125 237.438 38.2708 237.438 40.5625C237.438 41.3542 237.833 41.9583 238.625 42.375C240.104 43.1667 242.125 43.75 244.688 44.125C247.271 44.5 249.229 45.0104 250.562 45.6562C251.896 46.2812 252.969 47.0417 253.781 47.9375C255.281 49.5625 256.031 51.7188 256.031 54.4062C256.031 57.3438 254.854 59.7292 252.5 61.5625C250.042 63.5 246.615 64.4688 242.219 64.4688ZM287.109 1.32812C291.453 0.765625 295.906 0.484375 300.469 0.484375C308.969 0.484375 315.422 2.48438 319.828 6.48438C324.266 10.4531 326.484 16.4062 326.484 24.3438C326.484 31.4375 324.062 37.0469 319.219 41.1719C314.688 45.0469 308.859 46.9844 301.734 46.9844C300.922 46.9844 300.031 46.9375 299.062 46.8438V64H287.109V1.32812ZM301.875 11.7812C300.938 11.7812 300 11.8125 299.062 11.875V36.5312C300.062 36.6562 301.281 36.7188 302.719 36.7188C304.156 36.7188 305.656 36.4219 307.219 35.8281C308.781 35.2031 310.094 34.3438 311.156 33.25C313.375 30.9688 314.484 27.9688 314.484 24.25C314.484 15.9375 310.281 11.7812 301.875 11.7812ZM352.188 61.1562C349.521 63.3646 346.615 64.4688 343.469 64.4688C340.094 64.4688 337.448 63.3333 335.531 61.0625C333.698 58.8542 332.781 55.8229 332.781 51.9688V39.5625C332.781 35.3958 332.688 33.0104 332.5 32.4062C332.333 31.7812 332.208 31.3854 332.125 31.2188C333.083 31.3021 334.083 31.3438 335.125 31.3438H337.719C338.406 31.3438 339.312 31.3125 340.438 31.25V49.3438C340.438 53.6354 341.604 56.125 343.938 56.8125C344.646 57.0208 345.417 57.125 346.25 57.125C348.708 57.125 350.688 56.2292 352.188 54.4375V31.3438H359.938V60C359.938 61.8333 360.021 63.1667 360.188 64H352.188V61.1562ZM377.312 60.5C377.312 62.2917 377.354 63.4583 377.438 64H369.656V31.3438H377.312V33.75C379.083 31.7292 380.938 30.7188 382.875 30.7188C384.833 30.7188 386.375 30.9583 387.5 31.4375L386.938 39.8438L386.812 39.9375C386.083 38.6458 384.573 38 382.281 38C381.406 38 380.51 38.3021 379.594 38.9062C378.698 39.4896 377.938 40.2708 377.312 41.25V60.5ZM399.438 63.3438V72.5312C399.438 74.3229 399.479 75.4896 399.562 76.0312H391.781V31.3438H399.438V33.375C401.958 31.6042 404.375 30.7188 406.688 30.7188C409 30.7188 411.052 31.0417 412.844 31.6875C414.635 32.3333 416.208 33.3333 417.562 34.6875C420.542 37.625 422.031 41.8125 422.031 47.25C422.031 50.8542 421.188 54.0729 419.5 56.9062C418.062 59.3021 416.073 61.2188 413.531 62.6562C411.281 63.9271 408.844 64.5625 406.219 64.5625C403.594 64.5625 401.333 64.1562 399.438 63.3438ZM399.438 55.4688C401.021 56.8021 403.073 57.4688 405.594 57.4688C409.719 57.4688 412.385 55.4792 413.594 51.5C414.01 50.1458 414.219 48.6979 414.219 47.1562C414.219 45.5938 414.073 44.3542 413.781 43.4375C413.49 42.5 413.104 41.6979 412.625 41.0312C412.167 40.3438 411.646 39.7812 411.062 39.3438C410.479 38.8854 409.885 38.5208 409.281 38.25C408.219 37.7708 407.125 37.5312 406 37.5312C404.875 37.5312 403.708 37.7917 402.5 38.3125C401.292 38.8333 400.271 39.5312 399.438 40.4062V55.4688ZM426.25 47.8438C426.25 45.5521 426.635 43.3646 427.406 41.2812C428.198 39.1771 429.323 37.3438 430.781 35.7812C433.969 32.4062 438.104 30.7188 443.188 30.7188C448.25 30.7188 452.271 32.3125 455.25 35.5C458.104 38.5417 459.531 42.4896 459.531 47.3438C459.531 52.1979 458.062 56.2188 455.125 59.4062C452.021 62.7812 447.906 64.4688 442.781 64.4688C437.49 64.4688 433.344 62.8125 430.344 59.5C427.615 56.4792 426.25 52.5938 426.25 47.8438ZM433.844 47.6562C433.844 48.9688 434.062 50.2396 434.5 51.4688C434.938 52.6979 435.562 53.75 436.375 54.625C438.104 56.5208 440.375 57.4688 443.188 57.4688C445.792 57.4688 447.844 56.5417 449.344 54.6875C450.802 52.8958 451.531 50.5625 451.531 47.6875C451.531 44.7708 450.781 42.4167 449.281 40.625C447.677 38.7083 445.479 37.75 442.688 37.75C439.854 37.75 437.635 38.7708 436.031 40.8125C434.573 42.6875 433.844 44.9688 433.844 47.6562ZM477.062 64.4688C471.188 64.4688 466.76 63.3958 463.781 61.25C463.823 60.625 463.885 59.9167 463.969 59.125L464.25 56.875C464.417 55.3958 464.521 54.4792 464.562 54.125C464.604 53.75 464.635 53.5521 464.656 53.5312C464.677 53.4896 464.844 53.6562 465.156 54.0312C465.469 54.3854 466.062 54.8229 466.938 55.3438C467.812 55.8646 468.823 56.3229 469.969 56.7188C472.448 57.5729 475.031 58 477.719 58C481.323 58 483.125 56.8021 483.125 54.4062C483.125 53.6354 482.781 53.0625 482.094 52.6875C480.865 52.0625 479.052 51.5938 476.656 51.2812C474.281 50.9479 472.333 50.4688 470.812 49.8438C469.292 49.2188 468.052 48.4688 467.094 47.5938C465.323 45.9479 464.438 43.7917 464.438 41.125C464.438 37.875 465.688 35.3229 468.188 33.4688C470.667 31.6354 474.094 30.7188 478.469 30.7188C482.802 30.7188 486.5 31.9479 489.562 34.4062C489.417 34.9479 489.26 35.4688 489.094 35.9688C488.615 37.3438 488.26 38.3333 488.031 38.9375L487.312 40.7812C487.271 40.9479 487.24 41.0312 487.219 41.0312C487.177 41.0312 487.01 40.8125 486.719 40.375C485.406 38.8542 483.365 37.8542 480.594 37.375C479.74 37.2083 478.865 37.125 477.969 37.125C474.177 37.125 472.281 38.2708 472.281 40.5625C472.281 41.3542 472.677 41.9583 473.469 42.375C474.948 43.1667 476.969 43.75 479.531 44.125C482.115 44.5 484.073 45.0104 485.406 45.6562C486.74 46.2812 487.812 47.0417 488.625 47.9375C490.125 49.5625 490.875 51.7188 490.875 54.4062C490.875 57.3438 489.698 59.7292 487.344 61.5625C484.885 63.5 481.458 64.4688 477.062 64.4688ZM496.562 47.9375C496.562 45.5 496.979 43.2396 497.812 41.1562C498.646 39.0729 499.823 37.25 501.344 35.6875C504.594 32.375 508.844 30.7188 514.094 30.7188C518.531 30.7188 522.094 32.1875 524.781 35.125C527.427 37.9583 528.75 41.5208 528.75 45.8125C528.75 47.4583 528.625 48.5833 528.375 49.1875C526.292 49.7708 522.052 50.0625 515.656 50.0625H504.656C505.198 52.2917 506.458 54.0312 508.438 55.2812C510.417 56.5104 512.99 57.125 516.156 57.125C519.469 57.125 522.312 56.5312 524.688 55.3438C525.312 55.0312 525.781 54.7396 526.094 54.4688C526.052 55.3438 526 56.2396 525.938 57.1562L525.594 62.0312C524.01 63.1146 521.448 63.8646 517.906 64.2812C516.865 64.4062 515.865 64.4688 514.906 64.4688C509.615 64.4688 505.24 62.9271 501.781 59.8438C498.302 56.7396 496.562 52.7708 496.562 47.9375ZM520.438 44C519.583 39.5208 517.146 37.2812 513.125 37.2812C509.958 37.2812 507.552 38.6458 505.906 41.375C505.406 42.2083 505.021 43.125 504.75 44.125C505.25 44.1458 505.865 44.1667 506.594 44.1875H508.906C509.677 44.2083 510.417 44.2188 511.125 44.2188H512.906C513.969 44.2188 515.01 44.2083 516.031 44.1875L518.594 44.0938C519.281 44.0729 519.896 44.0417 520.438 44Z" fill="#10633D"/>
</svg>
